# AST/ASF file generated using VICON BodyLanguage
# -----------------------------------------------
:version 1.10
:name VICON
:units
  mass 1.0
  length 0.45
  angle deg
:documentation
   .ast/.asf automatically generated from VICON data using
   VICON BodyBuilder and BodyLanguage model FoxedUp or BRILLIANT.MOD
:root
   order TX TY TZ RX RY RZ
   axis XYZ
   position 0 0 0  
   orientation 0 0 0 
:bonedata
  begin
     id 1 
     name lhipjoint
     direction 0.612567 -0.751349 0.245431 
     length 2.42285 
     axis 0 0 0  XYZ
  end
  begin
     id 2 
     name lfemur
     direction 0.34202 -0.939693 0  
     length 7.11304  
     axis 0 0 20  XYZ
    dof rx ry rz
    limits (-160.0 20.0)
           (-70.0 70.0)
           (-60.0 70.0)
  end
  begin
     id 3 
     name ltibia
     direction 0.34202 -0.939693 0   
     length 7.84529   
     axis 0 0 20   XYZ
    dof rx
    limits (-10.0 170.0)
  end
  begin
     id 4 
     name lfoot
     direction 0.0779239 -0.214094 0.9737   
     length 1.97176   
     axis -90 7.62852e-016 20   XYZ
    dof rx rz
    limits (-45.0 90.0)
           (-70.0 20.0)
  end
  begin
     id 5 
     name ltoes
     direction 1.53565e-011 -4.21709e-011 1   
     length 0.993197   
     axis -90 7.62852e-016 20   XYZ
    dof rx
    limits (-90.0 20.0)
  end
  begin
     id 6 
     name rhipjoint
     direction -0.665722 -0.709315 0.231701   
     length 2.56642  
     axis 0 0 0  XYZ 
  end
  begin
     id 7 
     name rfemur
     direction -0.34202 -0.939693 0   
     length 7.32108   
     axis 0 0 -20   XYZ
    dof rx ry rz
    limits (-160.0 20.0)
           (-70.0 70.0)
           (-70.0 60.0)
  end
  begin
     id 8 
     name rtibia
     direction -0.34202 -0.939693 0   
     length 7.81254   
     axis 0 0 -20   XYZ
    dof rx
    limits (-10.0 170.0)
 end
 begin
     id 9 
     name rfoot
     direction -0.0832806 -0.228812 0.969902   
     length 2.08278  
     axis -90 -7.62852e-016 -20   XYZ
    dof rx rz
    limits (-45.0 90.0)
           (-20.0 70.0)
  end
  begin
     id 10 
     name rtoes
     direction -1.53589e-011 -4.22086e-011 1   
     length 1.04609   
     axis -90 -7.62852e-016 -20   XYZ
    dof rx
    limits (-90.0 20.0)
  end
  begin
     id 11 
     name lowerback
     direction -0.00506013 0.988403 -0.151766   
     length 2.01978   
     axis 0 0 0   XYZ
    dof rx ry rz
    limits (-20.0 45.0)
           (-30.0 30.0)
           (-30.0 30.0)
  end
  begin
     id 12 
     name upperback
     direction -0.00836389 0.99968 0.0238859   
     length 2.01276   
     axis 0 0 0   XYZ
    dof rx ry rz
    limits (-20.0 45.0)
           (-30.0 30.0)
           (-30.0 30.0)
  end
  begin
     id 13 
     name thorax
     direction -0.00684136 0.995386 0.0957043   
     length 2.07303   
     axis 0 0 0   XYZ
    dof rx ry rz
    limits (-20.0 45.0)
           (-30.0 30.0)
           (-30.0 30.0)
  end
  begin
     id 14 
     name lowerneck
     direction -0.0161045 0.999661 0.0204485   
     length 1.91243   
     axis 0 0 0   XYZ
    dof rx ry rz
    limits (-20.0 45.0)
           (-30.0 30.0)
           (-30.0 30.0)
  end
  begin
     id 15 
     name upperneck
     direction 0.0553583 0.990946 -0.122319   
     length 1.91574   
     axis 0 0 0   XYZ
    dof rx ry rz
    limits (-20.0 45.0)
           (-30.0 30.0)
           (-30.0 30.0)
  end
  begin
     id 16
     name head
     direction 0.0180273 0.998839 -0.0446756  
     length 1.92693  
     axis 0 0 0   XYZ
    dof rx ry rz
    limits (-20.0 45.0)
           (-30.0 30.0)
           (-30.0 30.0)
  end
  begin
     id 17 
     name lclavicle
     direction 0.945646 0.319323 -0.0615358  
     length 4.0076  
     axis 0 0 0   XYZ
    dof ry rz
    limits (-20.0 10.0)
           (0.0 20.0)
  end
  begin
     id 18 
     name lhumerus
     direction 1 -4.48967e-011 -2.79996e-027   
     length 5.64147   
     axis 180 -30 -90   XYZ
    dof rx ry rz
    limits (-60.0 90.0)
           (-90.0 90.0)
           (-90.0 90.0)
  end
  begin
     id 19
     name lradius
     direction 1 -4.48976e-011 -9.5122e-027   
     length 2.86444   
     axis 180 -30 -90   XYZ
    dof rx
    limits (-10.0 170.0)
  end
  begin
     id 20
     name lwrist
     direction 1 -4.48983e-011 -1.24047e-026   
     length 1.43222   
     axis 9.05591e-015 90 90   XYZ
    dof ry
    limits (-180.0 0.0)
 end
  begin
     id 21 
     name lhand
     direction 1 -4.4892e-011 -2.48094e-026   
     length 0.722123   
     axis 1.58305e-014 90 90   XYZ
    dof rx rz
    limits (-90.0 90.0)
           (-45.0 45.0)
  end
  begin
     id 22 
     name lfingers
     direction 1 -4.48895e-011 -4.96187e-026   
     length 0.582194   
     axis 3.1661e-014 90 90   XYZ
    dof rx
    limits (0.0 90.0)
  end
  begin
     id 23
     name lthumb
     direction 0.707107 -6.34961e-011 0.707107   
     length 0.835918   
     axis -90 45 2.85299e-015   XYZ
    dof rx rz
    limits (-45.0 45.0)
           (-45.0 45.0)
  end
  begin
     id 24 
     name rclavicle
     direction -0.932635 0.324218 -0.15835   
     length 3.65819  
     axis 0 0 0   XYZ 
    dof ry rz
    limits (-10.0 20.0)
           (-20.0 0.0)
  end
  begin
     id 25 
     name rhumerus
     direction -1 -4.48965e-011 -4.02296e-027  
     length 5.44729   
     axis 180 30 90   XYZ
    dof rx ry rz
    limits (-90.0 60.0)
           (-90.0 90.0)
           (-90.0 90.0)
  end
  begin
     id 26 
     name rradius
     direction -1 -4.48957e-011 -8.81087e-027   
     length 3.08821   
     axis 180 30 90   XYZ
    dof rx
    limits (-10.0 170.0)
  end
  begin
     id 27 
     name rwrist
     direction -1 -4.49015e-011 -1.24047e-026   
     length 1.5441   
     axis 9.05591e-015 -90 -90   XYZ
    dof ry
    limits (-180.0 0.0)
  end
  begin
     id 28
     name rhand
     direction -1 -4.4891e-011 -2.48094e-026   
     length 0.821049   
     axis 1.58305e-014 -90 -90   XYZ
    dof rx rz
    limits (-90.0 90.0)
           (-45.0 45.0)
  end
  begin
     id 29
     name rfingers
     direction -1 -4.48985e-011 -4.96187e-026   
     length 0.661951   
     axis 3.1661e-014 -90 -90   XYZ
    dof rx
    limits (0.0 90.0)
  end
  begin
     id 30
     name rthumb
     direction -0.707107 -6.34906e-011 0.707107   
     length 0.950433   
     axis -90 -45 -2.85299e-015   XYZ
    dof rx rz
    limits (-45.0 45.0)
           (-45.0 45.0)
  end
:hierarchy
  begin
    root lhipjoint rhipjoint lowerback
    lhipjoint lfemur
    lfemur ltibia
    ltibia lfoot
    lfoot ltoes
    rhipjoint rfemur
    rfemur rtibia
    rtibia rfoot
    rfoot rtoes
    lowerback upperback
    upperback thorax
    thorax lowerneck lclavicle rclavicle
    lowerneck upperneck
    upperneck head
    lclavicle lhumerus
    lhumerus lradius
    lradius lwrist
    lwrist lhand lthumb
    lhand lfingers
    rclavicle rhumerus
    rhumerus rradius
    rradius rwrist
    rwrist rhand rthumb
    rhand rfingers
  end

#!OML:ASF F:\VICON\USERDATA\INSTALL\rory3\rory3.ASF
:FULLY-SPECIFIED
:DEGREES
678
root 12.7207 17.2971 14.2454 -179.465 -14.0852 -179.741
lowerback 2.61644 2.73194 5.01252
upperback 4.0636 3.52854 -0.964845
thorax 3.10612 1.85942 -3.78943
lowerneck -3.79981 -0.0507281 -1.51445
upperneck 11.6113 -0.0329053 -2.00797
head 4.5111 -0.310637 -0.420686
rclavicle -2.55314e-014 9.24349e-015
rhumerus -21.4465 3.05551 -86.8437
rradius 34.2702
rwrist 12.9589
rhand -7.68735 8.49284
rfingers 7.12502
rthumb 18.2096 -20.6748
lclavicle -2.55314e-014 9.24349e-015
lhumerus -43.0093 8.28345 86.9011
lradius 19.576
lwrist 27.5862
lhand -12.1173 10.6751
lfingers 7.12502
lthumb 13.944 40.1875
rfemur 8.65631 -13.7188 26.1658
rtibia 11.3337
rfoot -36.7047 -20.2547
rtoes 1.76983
lfemur -25.1482 11.0172 -22.9441
ltibia 19.1125
lfoot -15.3279 8.46837
ltoes -5.40393
679
root 12.6902 17.2918 14.1832 -179.33 -14.099 -179.778
lowerback 2.45596 2.78108 4.85666
upperback 4.0097 3.59464 -1.05049
thorax 3.14163 1.89176 -3.7833
lowerneck -3.78326 -0.0594134 -1.50023
upperneck 11.5586 -0.0499531 -1.9442
head 4.48832 -0.312714 -0.401947
rclavicle 4.60932e-015 1.6201e-014
rhumerus -21.2429 3.1636 -87.1894
rradius 34.5049
rwrist 13.2852
rhand -7.39106 8.56424
rfingers 7.12502
rthumb 18.4947 -20.5766
lclavicle 4.60932e-015 1.6201e-014
lhumerus -43.1955 8.47523 86.9276
lradius 19.4392
lwrist 27.828
lhand -12.199 10.7547
lfingers 7.12502
lthumb 13.8653 40.2726
rfemur 8.80823 -13.5061 26.0728
rtibia 11.3129
rfoot -37.2706 -19.7689
rtoes 3.71241
lfemur -25.0079 10.7697 -22.8817
ltibia 19.0209
lfoot -15.2521 8.80587
ltoes -4.59846
680
root 12.6568 17.2868 14.1165 -179.213 -14.1275 -179.775
lowerback 2.27852 2.80605 4.75696
upperback 3.94135 3.62966 -1.1401
thorax 3.17266 1.91031 -3.81253
lowerneck -3.71231 -0.0544003 -1.49621
upperneck 11.4518 -0.0500588 -1.86822
head 4.4349 -0.304936 -0.375849
rclavicle -7.28981e-015 -3.57191e-015
rhumerus -21.0563 3.27559 -87.5564
rradius 34.6363
rwrist 13.6098
rhand -6.95001 8.98401
rfingers 7.12502
rthumb 18.9189 -20.1159
lclavicle -7.28981e-015 -3.57191e-015
lhumerus -43.3728 8.64931 86.9283
lradius 19.319
lwrist 28.1421
lhand -12.0429 10.9116
lfingers 7.12502
lthumb 14.0157 40.4191
rfemur 9.0152 -13.264 26.0134
rtibia 11.2918
rfoot -37.7877 -19.2472
rtoes 5.32962
lfemur -24.8359 10.5311 -22.7738
ltibia 18.9808
lfoot -15.236 8.96596
ltoes -4.39978
681
root 12.6251 17.2811 14.0485 -179.179 -14.1618 -179.671
lowerback 2.16277 2.82636 4.70787
upperback 3.88969 3.65848 -1.20184
thorax 3.18758 1.92576 -3.84392
lowerneck -3.72513 -0.0626911 -1.4842
upperneck 11.4388 -0.0735909 -1.72851
head 4.43242 -0.307463 -0.331902
rclavicle 2.77056e-015 1.04362e-015
rhumerus -20.9287 3.70593 -88.0221
rradius 34.8121
rwrist 13.2423
rhand -6.52651 9.90467
rfingers 7.12502
rthumb 19.3262 -19.155
lclavicle 2.77056e-015 1.04362e-015
lhumerus -43.4935 9.10615 86.6633
lradius 19.0667
lwrist 27.9592
lhand -11.9065 10.8405
lfingers 7.12502
lthumb 14.1471 40.3388
rfemur 9.24759 -13.1304 26.0331
rtibia 11.3501
rfoot -37.3731 -19.7293
rtoes 2.5798
lfemur -24.5753 10.3579 -22.5698
ltibia 18.9248
lfoot -15.0288 9.03896
ltoes -4.74589
682
root 12.5902 17.2712 13.9786 -179.169 -14.1909 -179.541
lowerback 2.03042 2.8514 4.69658
upperback 3.85624 3.69146 -1.25254
thorax 3.23333 1.94485 -3.88345
lowerneck -3.74658 -0.0478197 -1.39966
upperneck 11.4492 -0.0656328 -1.65102
head 4.44035 -0.295304 -0.320435
rclavicle 2.02512e-014 -2.23633e-015
rhumerus -20.8106 3.97199 -88.4232
rradius 34.9894
rwrist 13.0915
rhand -6.26168 10.3938
rfingers 7.12502
rthumb 19.5808 -18.6402
lclavicle 2.02512e-014 -2.23633e-015
lhumerus -43.532 9.66921 86.2987
lradius 18.6393
lwrist 27.3594
lhand -11.9185 10.5727
lfingers 7.12502
lthumb 14.1355 40.0719
rfemur 9.50723 -12.9437 26.0886
rtibia 11.3828
rfoot -37.4713 -19.6912
rtoes 2.06946
lfemur -24.34 10.4782 -22.4302
ltibia 18.9128
lfoot -14.7977 8.81374
ltoes -4.32227
683
root 12.5498 17.2627 13.9072 -179.072 -14.195 -179.552
lowerback 1.83524 2.88547 4.56809
upperback 3.79674 3.73697 -1.31449
thorax 3.28078 1.96733 -3.86612
lowerneck -3.71038 -0.0438203 -1.39358
upperneck 11.4605 -0.0686067 -1.59231
head 4.43708 -0.293937 -0.301856
rclavicle -2.54693e-014 -3.57812e-015
rhumerus -20.7324 4.18397 -88.6998
rradius 35.127
rwrist 13.1048
rhand -6.19069 10.564
rfingers 7.12502
rthumb 19.649 -18.463
lclavicle -2.54693e-014 -3.57812e-015
lhumerus -43.6291 10.2588 85.9717
lradius 18.2798
lwrist 26.6733
lhand -11.8164 10.5329
lfingers 7.12502
lthumb 14.234 40.0251
rfemur 9.78147 -12.6922 25.9925
rtibia 11.3032
rfoot -38.008 -19.0321
rtoes 4.0061
lfemur -24.1636 10.3604 -22.4147
ltibia 18.994
lfoot -14.6153 8.90095
ltoes -5.15562
